<?xml version="1.0" standalone="no"?>
<!DOCTYPE svg PUBLIC "-//W3C//DTD SVG 20010904//EN"
        "http://www.w3.org/TR/2001/REC-SVG-20010904/DTD/svg10.dtd">
<svg version="1.0" xmlns="http://www.w3.org/2000/svg"
     width="512.000000pt" height="512.000000pt" viewBox="0 0 512.000000 512.000000"
     preserveAspectRatio="xMidYMid meet">

    <g transform="translate(0.000000,512.000000) scale(0.100000,-0.100000)"
       fill="#FFFFFF" stroke="none">
        <path d="M2355 4903 c-711 -62 -1380 -462 -1767 -1058 -61 -94 -67 -117 -43
-152 20 -28 464 -263 498 -263 28 0 31 4 136 147 247 338 630 580 1051 664
134 27 387 36 531 19 279 -32 555 -139 793 -309 94 -66 267 -229 335 -315 206
-261 345 -596 368 -888 l6 -78 -66 0 c-55 0 -70 -4 -87 -22 -45 -49 -37 -61
211 -316 126 -130 242 -242 257 -249 20 -8 33 -8 53 0 14 7 130 118 258 249
246 252 251 259 211 311 -19 24 -28 26 -108 29 l-87 3 -7 85 c-44 541 -287
1065 -673 1455 -181 182 -235 213 -283 162 -45 -48 -33 -70 105 -201 212 -202
356 -392 473 -626 136 -272 206 -529 231 -844 12 -155 18 -169 75 -183 l34 -8
-127 -128 -128 -127 -129 129 -130 130 27 12 c45 20 52 55 38 192 -81 834
-669 1491 -1486 1663 -165 35 -447 44 -618 20 -347 -49 -664 -187 -931 -405
-91 -74 -247 -237 -310 -324 -28 -37 -54 -67 -59 -67 -5 0 -74 34 -153 76
l-144 75 40 57 c348 490 855 810 1445 912 154 27 422 37 570 21 314 -34 627
-132 875 -275 47 -27 92 -46 110 -46 67 0 94 79 43 126 -43 40 -356 189 -488
233 -251 82 -505 122 -760 119 -82 -1 -168 -3 -190 -5z"/>
        <path d="M3330 3803 c-292 -34 -547 -154 -690 -325 -42 -51 -130 -186 -130
-201 0 -2 -9 -26 -21 -52 l-21 -47 -30 53 c-101 177 -253 291 -473 354 -49 14
-126 29 -171 32 -75 5 -82 4 -102 -18 -27 -28 -29 -82 -7 -196 69 -366 279
-578 642 -652 120 -25 159 -26 280 -6 475 77 755 354 838 829 34 199 12 244
-115 229z m-55 -298 c-81 -320 -266 -506 -590 -590 -133 -34 -129 -35 -121 24
11 80 53 210 98 301 57 116 178 238 293 297 90 46 180 77 275 97 63 13 65 12
68 -8 1 -12 -9 -66 -23 -121z m-1347 -65 c178 -50 315 -156 385 -300 37 -76
85 -235 74 -246 -10 -10 -187 45 -251 79 -86 45 -185 146 -229 234 -35 68 -77
198 -77 235 0 23 9 22 98 -2z"/>
        <path d="M242 2827 c-247 -249 -256 -260 -236 -312 11 -28 60 -45 131 -45 l69
0 12 -132 c63 -701 443 -1335 1039 -1736 533 -359 1212 -478 1858 -326 270 64
597 214 802 369 75 55 94 90 74 129 -12 21 -49 46 -70 46 -4 0 -66 -39 -137
-86 -276 -183 -566 -296 -899 -350 -152 -25 -496 -26 -650 -1 -545 86 -1022
353 -1366 766 -309 370 -482 812 -508 1293 -8 152 -18 178 -73 178 -15 0 -28
3 -28 8 0 4 57 65 128 135 l127 127 128 -128 c70 -70 127 -131 127 -135 0 -4
-8 -7 -18 -7 -11 0 -27 -10 -38 -21 -51 -57 11 -475 106 -714 98 -246 294
-545 358 -545 11 0 33 11 48 23 44 38 37 70 -39 170 -186 247 -311 569 -334
860 l-6 77 57 0 c60 0 110 19 120 45 20 52 11 63 -236 312 -212 213 -246 243
-273 243 -27 0 -61 -30 -273 -243z"/>
        <path d="M2303 2470 c-41 -17 -56 -78 -29 -115 9 -13 31 -21 67 -25 l54 -5 3
-232 2 -232 27 -20 c34 -27 56 -26 90 3 l28 24 3 231 3 231 48 0 c35 0 53 5
66 20 25 28 23 76 -4 103 -20 21 -32 22 -179 24 -86 1 -167 -2 -179 -7z"/>
        <path d="M2989 2466 c-145 -39 -237 -152 -247 -301 -6 -99 23 -171 97 -246 59
-58 110 -83 203 -95 113 -16 257 67 315 180 37 72 43 180 14 257 -39 103 -121
176 -228 204 -67 18 -92 18 -154 1z m163 -162 c63 -33 99 -117 84 -198 -10
-50 -70 -111 -124 -125 -147 -40 -271 113 -202 249 44 87 152 120 242 74z"/>
        <path d="M3498 2450 c-40 -40 -35 -59 53 -183 41 -58 66 -103 62 -110 -4 -7
-42 -61 -85 -122 -86 -121 -94 -150 -53 -190 48 -48 83 -29 165 90 36 52 68
94 72 95 3 0 37 -43 73 -96 37 -52 77 -100 90 -106 45 -20 105 24 105 76 0 8
-38 68 -85 135 -47 66 -85 124 -85 128 0 5 32 53 70 107 43 61 70 110 70 126
0 58 -60 95 -105 66 -13 -9 -45 -46 -71 -83 -26 -38 -51 -72 -55 -76 -3 -5
-32 28 -64 73 -51 72 -83 100 -116 100 -6 0 -24 -14 -41 -30z"/>
        <path d="M1252 2463 c-36 -14 -42 -56 -42 -313 0 -262 5 -298 45 -314 27 -10
193 -7 238 5 71 18 131 69 169 146 30 61 33 76 33 158 0 119 -22 183 -85 246
-61 61 -119 79 -249 78 -53 0 -102 -3 -109 -6z m228 -158 c84 -44 93 -225 14
-295 -29 -25 -43 -30 -84 -30 l-50 0 0 170 0 170 45 0 c26 0 59 -7 75 -15z"/>
        <path d="M1820 2450 c-19 -19 -20 -33 -20 -300 0 -264 1 -281 19 -299 27 -27
71 -34 191 -29 97 3 103 4 126 31 29 34 30 56 3 91 -19 24 -26 26 -105 26
l-84 0 0 49 0 48 77 5 c86 6 113 25 113 79 0 51 -30 69 -115 69 l-75 0 0 50 0
50 64 0 c79 0 120 14 135 46 16 35 14 47 -10 78 -20 26 -21 26 -160 26 -126 0
-141 -2 -159 -20z"/>
        <path d="M4083 1753 c-7 -2 -52 -64 -100 -136 -142 -216 -360 -421 -576 -542
-168 -95 -351 -162 -552 -202 -141 -28 -484 -25 -625 6 -250 54 -490 158 -670
291 -167 124 -169 124 -214 89 -29 -23 -36 -73 -14 -100 43 -51 224 -176 359
-247 193 -102 433 -177 650 -202 135 -16 411 -8 539 15 372 67 724 251 992
519 84 84 201 227 259 315 l15 24 135 -71 c73 -40 140 -76 148 -81 24 -16
-133 -233 -281 -388 -63 -66 -69 -75 -66 -109 4 -48 43 -80 85 -70 65 16 344
361 432 533 27 54 27 84 -1 110 -34 30 -461 253 -484 252 -10 0 -25 -3 -31 -6z"/>
    </g>
</svg>
